<svg width="164" height="134" viewBox="0 0 164 134" fill="none" xmlns="http://www.w3.org/2000/svg">
<g clip-path="url(#clip0_5_22)">
<rect x="26.8096" y="38.3408" width="111.369" height="75.0142" rx="8" stroke="#C6C6C6" stroke-width="2" stroke-linejoin="round" stroke-dasharray="3 3"/>
<rect x="11" y="18" width="117.195" height="88.4945" rx="10" fill="#EFEFEF"/>
<rect x="117.672" y="23.7402" width="7.17523" height="1.9134" rx="0.956698" fill="#C4C4C4"/>
<rect x="14" y="30" width="111.455" height="73.6657" rx="8" fill="white"/>
<rect x="81.9023" y="40.8027" width="36.2604" height="2.62123" rx="1.31062" fill="#F1F1F1"/>
<rect x="24" y="54" width="45.7949" height="3" rx="1.5" fill="#F1F1F1"/>
<rect x="73.4102" y="54" width="20.4872" height="3" rx="1.5" fill="#F1F1F1"/>
<rect x="97.5132" y="54" width="20.4872" height="3" rx="1.5" fill="#F1F1F1"/>
<rect x="24" y="66" width="45.7949" height="3" rx="1.5" fill="#F1F1F1"/>
<rect x="73.4102" y="66" width="20.4872" height="3" rx="1.5" fill="#F1F1F1"/>
<rect x="97.5132" y="66" width="20.4872" height="3" rx="1.5" fill="#F1F1F1"/>
<rect x="24" y="78" width="45.7949" height="3" rx="1.5" fill="#F1F1F1"/>
<rect x="73.4102" y="78" width="20.4872" height="3" rx="1.5" fill="#F1F1F1"/>
<rect x="97.5132" y="78" width="20.4872" height="3" rx="1.5" fill="#F1F1F1"/>
<rect x="24" y="90" width="45.7949" height="3" rx="1.5" fill="#F1F1F1"/>
<rect x="73.4102" y="90" width="20.4872" height="3" rx="1.5" fill="#F1F1F1"/>
<rect x="97.5132" y="90" width="20.4872" height="3" rx="1.5" fill="#F1F1F1"/>
<rect x="24.2354" y="39.0547" width="20.569" height="1.9134" rx="0.956698" fill="#7D8C9E"/>
<rect x="24.2354" y="42.4033" width="20.569" height="1.9134" rx="0.956698" fill="#F1F1F1"/>
<rect x="24.2354" y="45.752" width="11.4804" height="1.9134" rx="0.956698" fill="#F1F1F1"/>
<circle cx="15.066" cy="24.4574" r="1.19587" fill="#DC6265"/>
<circle cx="18.4136" cy="24.4576" r="1.19587" fill="#EBBE4E"/>
<circle cx="21.7623" cy="24.4574" r="1.19587" fill="#83BF6E"/>
<g filter="url(#filter0_ddd_5_22)">
<rect x="99.4434" y="67.416" width="54" height="48" rx="8" fill="white"/>
</g>
<rect x="105.802" y="74.7939" width="20.9699" height="2.62123" rx="1.31062" fill="#F1F1F1"/>
<rect x="105.802" y="78.7256" width="10.9218" height="2.62123" rx="1.31062" fill="#F1F1F1"/>
<rect x="136.383" y="108.433" width="10.9218" height="2.62123" rx="1.31062" fill="#F1F1F1"/>
<rect x="144.683" y="75.6678" width="2.62123" height="2.62123" rx="1.31062" fill="#F1F1F1"/>
<circle cx="126" cy="90" r="13" stroke="#C4C5C5" stroke-width="4"/>
<path d="M140.316 108.587C141.072 109.393 142.338 109.433 143.143 108.677C143.948 107.921 143.989 106.655 143.233 105.85L140.316 108.587ZM143.233 105.85L136.458 98.6314L133.542 101.369L140.316 108.587L143.233 105.85Z" fill="#C4C5C5"/>
</g>
<defs>
<filter id="filter0_ddd_5_22" x="87.4434" y="63.416" width="78" height="72" filterUnits="userSpaceOnUse" color-interpolation-filters="sRGB">
<feFlood flood-opacity="0" result="BackgroundImageFix"/>
<feColorMatrix in="SourceAlpha" type="matrix" values="0 0 0 0 0 0 0 0 0 0 0 0 0 0 0 0 0 0 127 0" result="hardAlpha"/>
<feOffset dy="2"/>
<feGaussianBlur stdDeviation="2"/>
<feComposite in2="hardAlpha" operator="out"/>
<feColorMatrix type="matrix" values="0 0 0 0 0.442674 0 0 0 0 0.476817 0 0 0 0 0.508333 0 0 0 0.03 0"/>
<feBlend mode="normal" in2="BackgroundImageFix" result="effect1_dropShadow_5_22"/>
<feColorMatrix in="SourceAlpha" type="matrix" values="0 0 0 0 0 0 0 0 0 0 0 0 0 0 0 0 0 0 127 0" result="hardAlpha"/>
<feOffset dy="4"/>
<feGaussianBlur stdDeviation="4"/>
<feComposite in2="hardAlpha" operator="out"/>
<feColorMatrix type="matrix" values="0 0 0 0 0.442674 0 0 0 0 0.476817 0 0 0 0 0.508333 0 0 0 0.08 0"/>
<feBlend mode="normal" in2="effect1_dropShadow_5_22" result="effect2_dropShadow_5_22"/>
<feColorMatrix in="SourceAlpha" type="matrix" values="0 0 0 0 0 0 0 0 0 0 0 0 0 0 0 0 0 0 127 0" result="hardAlpha"/>
<feOffset dy="8"/>
<feGaussianBlur stdDeviation="6"/>
<feComposite in2="hardAlpha" operator="out"/>
<feColorMatrix type="matrix" values="0 0 0 0 0.442674 0 0 0 0 0.476817 0 0 0 0 0.508333 0 0 0 0.12 0"/>
<feBlend mode="normal" in2="effect2_dropShadow_5_22" result="effect3_dropShadow_5_22"/>
<feBlend mode="normal" in="SourceGraphic" in2="effect3_dropShadow_5_22" result="shape"/>
</filter>
<clipPath id="clip0_5_22">
<rect width="164" height="134" fill="white"/>
</clipPath>
</defs>
</svg>
